<svg width="20" height="20" viewBox="0 0 20 20" fill="none" xmlns="http://www.w3.org/2000/svg">
    <path d="M17.4995 10C17.4995 10.1658 17.4337 10.3247 17.3165 10.442C17.1992 10.5592 17.0403 10.625 16.8745 10.625H4.63311L9.1917 15.1828C9.24977 15.2409 9.29584 15.3098 9.32726 15.3857C9.35869 15.4616 9.37486 15.5429 9.37486 15.625C9.37486 15.7071 9.35869 15.7885 9.32726 15.8643C9.29584 15.9402 9.24977 16.0091 9.1917 16.0672C9.13363 16.1253 9.0647 16.1713 8.98883 16.2028C8.91296 16.2342 8.83164 16.2504 8.74952 16.2504C8.66739 16.2504 8.58608 16.2342 8.51021 16.2028C8.43433 16.1713 8.3654 16.1253 8.30733 16.0672L2.68233 10.4422C2.62422 10.3842 2.57812 10.3152 2.54667 10.2393C2.51521 10.1635 2.49902 10.0821 2.49902 10C2.49902 9.91788 2.51521 9.83655 2.54667 9.76067C2.57812 9.6848 2.62422 9.61587 2.68233 9.55782L8.30733 3.93282C8.4246 3.81555 8.58366 3.74966 8.74952 3.74966C8.91537 3.74966 9.07443 3.81555 9.1917 3.93282C9.30898 4.0501 9.37486 4.20916 9.37486 4.37501C9.37486 4.54086 9.30898 4.69992 9.1917 4.8172L4.63311 9.37501H16.8745C17.0403 9.37501 17.1992 9.44086 17.3165 9.55807C17.4337 9.67528 17.4995 9.83425 17.4995 10Z" fill="#7A7B9F"/>
</svg>
