<svg width="24" height="25" viewBox="0 0 24 25" fill="none" xmlns="http://www.w3.org/2000/svg">
    <path d="M22.4234 9.61812C22.3297 9.32986 22.1527 9.0758 21.9148 8.88795C21.6769 8.7001 21.3887 8.58686 21.0866 8.56249L15.5553 8.11624L13.4197 2.95155C13.3042 2.67013 13.1076 2.42941 12.855 2.26C12.6023 2.09058 12.305 2.00012 12.0008 2.00012C11.6966 2.00012 11.3992 2.09058 11.1466 2.26C10.8939 2.42941 10.6974 2.67013 10.5819 2.95155L8.44812 8.11531L2.91406 8.56249C2.61141 8.58809 2.32305 8.70243 2.0851 8.89119C1.84714 9.07994 1.67019 9.33472 1.5764 9.62361C1.4826 9.91249 1.47615 10.2226 1.55784 10.5152C1.63953 10.8077 1.80573 11.0696 2.03562 11.2681L6.25437 14.9084L4.96906 20.3516C4.89717 20.6473 4.91477 20.9577 5.01962 21.2434C5.12447 21.5291 5.31185 21.7771 5.55796 21.9562C5.80407 22.1352 6.09781 22.237 6.40191 22.2488C6.70601 22.2605 7.00674 22.1817 7.26593 22.0222L12.0003 19.1084L16.7375 22.0222C16.9968 22.1798 17.2969 22.2571 17.6001 22.2445C17.9032 22.2318 18.1958 22.1298 18.4411 21.9512C18.6864 21.7726 18.8733 21.5254 18.9784 21.2407C19.0835 20.9561 19.102 20.6467 19.0316 20.3516L17.7416 14.9075L21.9603 11.2672C22.1921 11.069 22.3598 10.8065 22.4422 10.513C22.5247 10.2194 22.5181 9.90796 22.4234 9.61812ZM20.9853 10.1309L16.4197 14.0684C16.3156 14.1582 16.2381 14.2748 16.1958 14.4056C16.1535 14.5364 16.1479 14.6763 16.1797 14.81L17.5747 20.6975C17.5783 20.7056 17.5786 20.7148 17.5757 20.7232C17.5727 20.7315 17.5667 20.7385 17.5587 20.7425C17.5419 20.7556 17.5372 20.7528 17.5231 20.7425L12.3931 17.5878C12.275 17.5152 12.139 17.4767 12.0003 17.4767C11.8616 17.4767 11.7256 17.5152 11.6075 17.5878L6.47749 20.7444C6.46343 20.7528 6.45968 20.7556 6.44187 20.7444C6.43396 20.7403 6.42789 20.7334 6.42493 20.725C6.42196 20.7167 6.42232 20.7075 6.42593 20.6994L7.82093 14.8119C7.85272 14.6781 7.84715 14.5382 7.80483 14.4075C7.7625 14.2767 7.68505 14.1601 7.58093 14.0703L3.01531 10.1328C3.00406 10.1234 2.99374 10.115 3.00312 10.0859C3.01249 10.0569 3.01999 10.0606 3.03406 10.0587L9.02656 9.57499C9.164 9.5632 9.29554 9.51373 9.40668 9.43203C9.51783 9.35032 9.60429 9.23954 9.65656 9.11187L11.9647 3.52343C11.9722 3.50749 11.975 3.49999 11.9975 3.49999C12.02 3.49999 12.0228 3.50749 12.0303 3.52343L14.3441 9.11187C14.3968 9.23958 14.4838 9.35025 14.5955 9.43164C14.7072 9.51303 14.8391 9.56199 14.9769 9.57312L20.9694 10.0569C20.9834 10.0569 20.9919 10.0569 21.0003 10.0841C21.0087 10.1112 21.0003 10.1216 20.9853 10.1309Z" fill="#A85FDD"/>
</svg>
